<svg width="165" height="27" viewBox="0 0 165 27" fill="none" xmlns="http://www.w3.org/2000/svg">
<path fill-rule="evenodd" clip-rule="evenodd" d="M26.0881 0.585655C26.0537 0.691028 25.9555 1.17958 25.8703 1.67132C25.644 2.97488 25.6412 2.97679 24.8673 2.36397C24.0651 1.72879 24.0202 1.74833 24.2805 2.62018C24.5227 3.43098 24.5282 3.4237 23.779 3.28448C23.1183 3.16174 23.0435 3.23352 23.4505 3.59932C23.5993 3.73318 23.8314 3.99642 23.9661 4.18443L24.2111 4.52622L23.4706 4.66927C22.1351 4.92753 22.1125 4.99701 23.282 5.24914L24.3475 5.47866L23.9562 5.8801C23.4246 6.42562 23.46 6.49931 24.2042 6.39752L24.8435 6.31015L24.5895 7.04419C24.1971 8.17851 24.2638 8.2471 25.0287 7.49582C25.8089 6.72947 25.7456 6.68592 26.0114 8.16995C26.1942 9.18984 26.2859 9.10324 26.5219 7.68741L26.6901 6.67864L27.187 7.20844C27.8184 7.88155 27.8357 7.87683 27.7829 7.04815L27.7389 6.35805L28.381 6.60111C29.3504 6.96781 29.4174 6.90829 28.843 6.19086C28.2039 5.39245 28.2062 5.38824 29.4084 5.18375C30.6373 4.97466 30.6954 4.87197 29.6949 4.67655C28.6213 4.4667 28.6254 4.47296 29.1454 3.84174C29.7394 3.12086 29.7468 3.12827 28.7021 3.3956C28.2076 3.52205 27.8031 3.58438 27.8031 3.53405C27.8031 3.48373 27.8649 3.11026 27.9404 2.7041C28.1073 1.80594 28.0657 1.75076 27.5226 2.15041C26.8002 2.682 26.8182 2.69056 26.5794 1.70235C26.3118 0.594085 26.182 0.298913 26.0881 0.585655ZM26.961 4.19043C27.6447 5.16114 26.356 6.19495 25.5877 5.29193C25.0858 4.7021 25.5058 3.9065 26.3189 3.9065C26.6303 3.9065 26.8202 3.99054 26.961 4.19043ZM69.3154 4.29504C65.3343 5.00621 62.4782 7.91923 62.4782 11.2682C62.4782 13.4243 63.749 14.5839 66.7307 15.149C68.7271 15.5273 69.1888 16.0668 68.129 16.7828C66.5798 17.8297 63.2793 16.2461 62.9877 14.3161C62.202 9.11729 54.327 7.09196 50.1745 11.0206L49.6356 11.5304V10.2729V9.01549H48.9698C47.7544 9.01549 46.8252 9.36674 46.1039 10.099L45.4617 10.7509L45.5053 10.0109L45.5488 9.27094H42.5836H39.6183V15.274V21.2771H42.561H45.5035L45.5469 18.6268C45.6026 15.2109 46.0165 14.3799 47.6617 14.3799C48.4356 14.3799 48.4797 14.4415 48.4797 15.5199C48.4797 20.353 54.7085 23.2231 59.7359 20.7067L60.5825 20.2829L61.2878 20.5931C67.9627 23.5289 75.3209 20.4578 75.3209 14.7363C75.3209 13.9997 75.3224 13.9968 75.7061 13.9968C75.918 13.9968 76.0914 14.0273 76.0914 14.0647C76.0914 14.1763 74.9432 20.8056 74.8698 21.1174L74.8023 21.4048H77.8141C80.572 21.4048 80.8314 21.3859 80.8912 21.1813C80.9272 21.0583 81.2021 19.3916 81.5024 17.4773L82.0481 13.9968H82.7836C83.9866 13.9968 83.9432 13.7191 83.3284 17.4813C83.0276 19.3231 82.7787 20.9593 82.7755 21.1174L82.7696 21.4048H85.7176H88.6655L88.7362 20.9897C88.7751 20.7615 88.9728 19.5536 89.1758 18.3056C89.5979 15.7092 89.8101 15.2379 90.7641 14.7786C91.4714 14.4381 92.4499 14.4218 92.9795 14.7418L93.3648 14.9744L93.3699 16.3695C93.3878 21.1437 97.2536 23.22 100.854 20.3893C101.586 19.8141 101.6 19.8224 101.34 20.682L101.16 21.2771H104.099H107.037L107.1 20.9897C107.135 20.8316 107.403 19.1998 107.696 17.3635L108.229 14.0245L108.744 13.9425C109.028 13.8974 109.275 13.8768 109.294 13.8968C109.313 13.9167 109.076 15.5135 108.767 17.4453C108.457 19.3772 108.203 21.0297 108.201 21.1174C108.199 21.2407 108.886 21.2771 111.216 21.2771C112.876 21.2771 114.234 21.2265 114.234 21.1648C114.234 21.0216 115.24 14.686 115.335 14.2296C115.4 13.9159 115.445 13.8937 115.88 13.9604C116.491 14.0541 116.463 13.9758 116.219 14.9086C115.018 19.4911 119.328 22.6764 124.833 21.2761C127.172 20.6811 129.902 18.5863 129.902 17.3866C129.902 17.3486 128.629 17.3176 127.072 17.3176H124.243L123.793 17.7646C122.874 18.6785 121.811 18.2239 121.811 16.9172V16.2958H125.898H129.984L130.138 17.2792C130.767 21.3021 135.364 22.8459 137.886 19.8812C138.152 19.5684 138.254 19.5054 138.208 19.6805C137.702 21.6255 137.31 22.2401 136.247 22.7575C135.047 23.3412 132.943 23.0171 131.586 22.0393C131.297 21.8308 131.029 21.6603 130.992 21.6603C130.874 21.6603 129.003 25.6444 129.07 25.7524C129.105 25.8089 129.596 26.0081 130.161 26.1952C134.402 27.6 139.126 26.8998 141.636 24.4945C143.246 22.9517 143.533 22.0711 144.557 15.5295C144.991 12.7546 145.385 10.4421 145.431 10.3903C145.477 10.3387 146.173 12.3791 146.976 14.9246C147.78 17.4701 148.46 19.617 148.488 19.6956C148.516 19.7741 147.663 21.1476 146.594 22.7476C145.524 24.3477 144.619 25.7347 144.582 25.8298C144.527 25.9725 145.066 26.0029 147.651 26.0029H150.787L155.881 17.7196C158.683 13.1637 161.011 9.34157 161.056 9.22586C161.13 9.03401 160.862 9.01562 158.009 9.01741L154.881 9.01932L153.865 11.3484C153.305 12.6293 152.73 14.0367 152.586 14.4757C152.249 15.5031 152.119 15.4853 152.122 14.4119C152.123 13.9376 151.997 12.5296 151.843 11.2826L151.562 9.01549H145.677H139.791V9.77431C139.791 10.5366 139.62 10.892 139.474 10.4341C139.319 9.94852 138.297 9.16416 137.531 8.94269C135.201 8.26881 132.418 9.79308 131.063 12.4851C130.779 13.0497 130.523 13.434 130.495 13.3391C129.105 8.63692 122.504 7.43068 118.473 11.1422C118.049 11.5332 117.702 11.8036 117.703 11.7434C117.704 11.5837 117.95 10.0226 118.026 9.68605C118.09 9.40774 118.061 9.39867 117.126 9.39867C116.438 9.39867 116.161 9.35269 116.162 9.23901C116.163 9.15126 116.278 8.3609 116.417 7.4828C116.557 6.60469 116.672 5.78559 116.673 5.66272C116.674 5.45619 116.447 5.4392 113.682 5.4392H110.69L110.374 7.387L110.058 9.33481L106.56 9.28921L103.061 9.24348V9.93626V10.6289L102.45 10.0433C100.392 8.0702 96.6561 9.06377 94.7197 12.0994C94.1229 13.0352 94.1216 13.03 94.4564 10.9952C94.5951 10.1522 94.7097 9.38245 94.7109 9.28448C94.7188 8.68303 91.9186 9.42179 90.9678 10.272C90.3229 10.8486 90.3058 10.8555 90.3953 10.5008C90.446 10.2998 90.5218 9.96487 90.5637 9.75681L90.6398 9.37836L86.7688 9.42051C82.9687 9.46176 82.8979 9.4578 82.9003 9.20708C82.9016 9.06658 83.0162 8.26192 83.1549 7.41893C83.2936 6.57595 83.4081 5.81445 83.4094 5.72658C83.4112 5.60332 82.7237 5.56692 80.3937 5.56692C78.7338 5.56692 77.3757 5.60997 77.3757 5.66272C77.3757 5.8073 76.8725 8.9091 76.7954 9.23978C76.733 9.50762 76.6799 9.52231 76.0458 9.44823L75.3635 9.36852L75.2096 10.3096C75.1249 10.8271 74.9949 11.6035 74.9207 12.0347L74.7858 12.8185L74.2688 12.2607C73.6062 11.5457 72.7644 11.1434 71.0828 10.738C68.9659 10.2276 68.775 10.1114 69.0737 9.51528C69.5409 8.58327 71.624 8.70946 73.1964 9.76485C73.6082 10.0411 73.8013 10.1086 73.8726 10.0008C74.3077 9.34234 76.1854 5.74267 76.1356 5.66246C75.5718 4.7551 71.4104 3.92068 69.3154 4.29504ZM2.88836 4.40565C2.88836 4.46951 2.28155 8.25464 1.53988 12.8171C0.798221 17.3796 0.191406 21.1495 0.191406 21.1947C0.191406 21.24 1.56621 21.2771 3.24654 21.2771H6.30155L6.7165 17.0302C6.94471 14.6945 7.13517 12.6109 7.13966 12.4002C7.14441 12.1841 7.24959 12.4627 7.38085 13.0388C7.50889 13.6008 8.08514 15.5837 8.66151 17.4453C9.23776 19.3069 9.73888 20.9306 9.77497 21.0536C9.83379 21.2534 10.0422 21.2771 11.7485 21.2771H13.6563L13.79 20.862C15.7686 14.7176 16.3749 12.7583 16.3833 12.4813C16.3888 12.2962 16.4158 12.2022 16.4433 12.2725C16.4908 12.3945 17.2721 20.7078 17.2721 21.0921C17.2721 21.251 18.124 21.2771 23.3082 21.2771H29.3442L29.3454 19.6486L29.3466 18.0201L29.715 18.6587C31.0914 21.0447 34.871 22.212 38.0296 21.2265L38.6881 21.021L38.7766 18.7541C38.8253 17.5074 38.894 16.3867 38.9293 16.2639C39.0179 15.955 38.8141 15.9842 38.2579 16.3594C36.7404 17.3836 34.9943 16.8266 34.9955 15.3187C34.9968 13.6075 36.5322 13.0415 38.2442 14.1213C38.581 14.3338 38.8849 14.5077 38.9192 14.5077C38.9536 14.5077 38.966 13.4021 38.9469 12.0507L38.912 9.59396L38.0772 9.36227C34.4761 8.36295 31.0193 9.53329 29.6906 12.2017L29.3442 12.8974V11.0841V9.27094H26.3262H23.3082L23.2935 14.7312L23.279 20.1914L22.0173 12.6557C21.3235 8.51098 20.7206 4.93315 20.6777 4.70478L20.5995 4.28967H17.4002H14.2008L13.9466 5.15182C12.6339 9.60469 12.1031 11.5304 11.9694 12.3246L11.8121 13.2594L10.8083 9.44516C10.2563 7.34728 9.71808 5.3291 9.61226 4.96023L9.41987 4.28967H6.15412C4.28243 4.28967 2.88836 4.33923 2.88836 4.40565ZM161.921 9.39228C160.899 10.012 160.998 11.451 162.094 11.9064C163.759 12.5983 164.895 10.1586 163.292 9.33404C162.794 9.07821 162.412 9.09443 161.921 9.39228ZM163.363 9.83996C163.722 10.1964 163.776 10.7537 163.49 11.1305C163.281 11.4056 163.284 11.4168 163.244 10.2927C163.229 9.86103 163.21 9.8443 162.683 9.80649L162.137 9.76715V10.6048C162.137 11.2641 162.178 11.4423 162.33 11.4423C162.458 11.4423 162.522 11.3145 162.522 11.0591C162.522 10.6435 162.744 10.5376 162.857 10.8994C162.895 11.0224 162.98 11.2235 163.047 11.3465C163.262 11.748 162.359 11.7021 161.917 11.289C161.278 10.6916 161.763 9.52639 162.651 9.52639C162.901 9.52639 163.164 9.64224 163.363 9.83996ZM162.876 10.1969C162.795 10.4386 162.394 10.473 162.394 10.2382C162.394 10.1198 162.504 10.0373 162.661 10.0373C162.818 10.0373 162.907 10.1033 162.876 10.1969ZM124.365 12.4169C124.692 12.6452 125.075 13.4251 124.954 13.6192C124.827 13.8234 122.197 13.7752 122.197 13.5686C122.197 12.6742 123.636 11.9095 124.365 12.4169ZM138.309 13.5559C139.805 14.2618 138.777 16.8974 137.109 16.6334C135.606 16.3956 135.782 14.124 137.351 13.5016C137.789 13.3279 137.831 13.3303 138.309 13.5559ZM56.7806 13.9864C57.3482 14.3306 57.6801 15.2144 57.4745 15.8341C57.0997 16.9636 55.7751 17.3184 54.96 16.5077C53.6192 15.1743 55.1785 13.0148 56.7806 13.9864ZM101.975 14.0549C102.344 14.4213 102.409 15.3146 102.11 15.8871C101.425 17.1961 99.8267 17.2912 99.4513 16.0451C98.9941 14.5273 100.922 13.0071 101.975 14.0549Z" fill="#93A2B7"/>
</svg>
