<svg width="160" height="40" viewBox="0 0 160 40" fill="none" xmlns="http://www.w3.org/2000/svg">
<path fill-rule="evenodd" clip-rule="evenodd" d="M4.69586 0.336539C4.65577 0.348424 4.44865 0.403793 4.12371 0.489422C3.80976 0.572172 3.05137 0.958335 3.00666 1.05824C2.99914 1.07496 2.97155 1.08875 2.94535 1.08883C2.75732 1.08944 1.91355 2.16802 1.73066 2.64155C1.68571 2.75793 1.63319 2.88968 1.61394 2.9343C1.54827 3.08653 1.45137 3.46122 1.40821 3.72995C1.3792 3.91058 1.36547 6.21126 1.36624 10.7677L1.36739 17.5371L1.48811 17.6955C2.1463 18.5588 3.44791 18.5011 4.07246 17.5808L4.18464 17.4154L4.18485 10.7943C4.18501 3.73121 4.175 4.13084 4.36197 3.72529C4.72541 2.93682 5.84937 2.48973 6.72273 2.7862C7.21065 2.95182 7.44957 3.0295 7.78142 3.13034C8.32914 3.29677 8.7415 3.42374 9.31084 3.6012C9.60133 3.69178 9.86276 3.76585 9.89182 3.76585C9.92088 3.76585 10.0051 3.79108 10.0789 3.82191C10.1527 3.85274 10.305 3.90519 10.4174 3.93849C10.9051 4.08297 11.3694 4.22385 11.5209 4.27338C11.6108 4.30275 11.8315 4.37158 12.0113 4.4263C12.1911 4.48102 12.5313 4.58458 12.7674 4.65646C13.0034 4.72834 13.2608 4.80598 13.3395 4.82898C13.4182 4.85198 13.543 4.89599 13.6168 4.92677C13.6906 4.95756 13.7865 4.98275 13.8299 4.98275C13.8734 4.98275 13.9693 5.00839 14.0431 5.0397C14.1169 5.07102 14.2601 5.11945 14.3612 5.14736C14.4624 5.17523 14.7014 5.24719 14.8925 5.30726C15.0836 5.36733 15.3226 5.44027 15.4238 5.46935C15.5249 5.49844 15.764 5.57198 15.9551 5.63286C16.1461 5.69371 16.3852 5.76595 16.4864 5.79341C16.5875 5.82083 16.7346 5.8663 16.8133 5.89442C16.892 5.92253 17.0667 5.97745 17.2016 6.01651C17.3364 6.05557 17.4928 6.10242 17.5489 6.1206C17.6051 6.13877 17.8994 6.22841 18.2028 6.31984C18.5063 6.41127 18.9201 6.53791 19.1224 6.60127C19.3247 6.66463 19.5729 6.73907 19.6741 6.76665C19.7752 6.79423 19.9224 6.83983 20.001 6.86794C20.0797 6.89605 20.2544 6.95134 20.3893 6.9908C20.5242 7.03027 20.7632 7.10284 20.9206 7.152C21.0779 7.20121 21.3722 7.29073 21.5745 7.35101C21.7768 7.41124 22.1078 7.51216 22.3101 7.57528C22.5124 7.6384 22.7607 7.71259 22.8618 7.74017C22.963 7.76776 23.1101 7.81375 23.1888 7.84239C23.2674 7.87103 23.4422 7.92672 23.577 7.96619C23.7119 8.00562 23.951 8.07778 24.1083 8.12646C24.2657 8.17513 24.5599 8.26425 24.7622 8.32453C24.9645 8.38476 25.2955 8.48638 25.4978 8.5503C25.7001 8.61423 26.0312 8.7158 26.2335 8.776C26.4358 8.83624 26.6748 8.90917 26.7647 8.93805C26.8547 8.96697 27.0937 9.04011 27.296 9.10055C27.4983 9.16099 27.7374 9.23465 27.8273 9.26422C27.9172 9.29383 28.1563 9.36575 28.3586 9.42408C28.5609 9.48241 28.7908 9.55413 28.8695 9.58345C28.9481 9.61278 29.1229 9.66872 29.2577 9.70778C29.3926 9.74684 29.5489 9.79276 29.6051 9.8098C29.6613 9.82683 29.8176 9.87275 29.9525 9.91182C30.0873 9.95088 30.2621 10.0058 30.3407 10.0339C30.4194 10.062 30.5665 10.1081 30.6677 10.1362C30.7688 10.1643 31.0079 10.2365 31.199 10.2966C31.39 10.3566 31.6291 10.4288 31.7302 10.4569C31.8314 10.4851 31.9785 10.5311 32.0572 10.5593C32.2223 10.6185 32.528 10.7114 32.7928 10.7829C32.894 10.8103 33.0411 10.8554 33.1198 10.8833C33.1984 10.9112 33.4191 10.9844 33.6102 11.0461C34.23 11.246 34.6339 11.6455 34.8431 12.2655L34.9384 12.5478V21.8774V31.207L34.8426 31.4909C34.7462 31.7769 34.517 32.2008 34.4589 32.2008C34.4417 32.2008 34.4276 32.2199 34.4276 32.2433C34.4276 32.2667 34.377 32.3309 34.3152 32.3861C34.2533 32.4412 34.166 32.5199 34.121 32.561C33.9984 32.6731 33.4945 32.9715 33.428 32.9715C33.396 32.9715 33.3592 32.9885 33.3462 33.0094C33.279 33.1173 32.8442 33.1904 32.282 33.1884C31.522 33.1856 31.2355 33.1122 30.3937 32.7051C29.8708 32.4522 29.6589 32.409 29.3267 32.4871C29.0834 32.5443 28.8286 32.6697 28.8286 32.7321C28.8286 32.7522 28.8055 32.7687 28.7772 32.7687C28.6318 32.7687 28.4866 33.1426 28.4858 33.5191C28.4847 34.0711 28.6189 34.2884 29.1961 34.6687C29.6181 34.9467 30.0499 35.1802 30.5655 35.4093C30.7224 35.479 31.3027 35.653 31.5055 35.6912C31.6179 35.7123 31.7926 35.7471 31.8937 35.7685C32.6227 35.9227 33.9176 35.7539 34.6728 35.4064C35.5084 35.0217 36.527 34.0295 36.881 33.2554C36.8963 33.222 36.9387 33.1377 36.9751 33.0682C37.0115 32.9986 37.0676 32.8434 37.0996 32.7234C37.1316 32.6033 37.1827 32.4503 37.2129 32.3833C37.2904 32.2119 37.335 12.4611 37.2595 11.7771C37.1962 11.2047 37.0688 10.7659 36.8767 10.4588C36.8557 10.4253 36.8213 10.3583 36.8 10.3099C36.6798 10.035 36.06 9.33999 35.7362 9.11681C35.3896 8.87793 35.2101 8.80034 34.5706 8.61281C34.4357 8.57326 34.2794 8.52726 34.2232 8.51063C34.167 8.49396 34.0015 8.44902 33.8554 8.41068C33.7093 8.37239 33.5254 8.31731 33.4467 8.28826C33.368 8.25918 33.1198 8.18572 32.895 8.125C32.6702 8.06423 32.4127 7.99179 32.3228 7.964C32.0384 7.87602 31.7568 7.79282 31.5668 7.74058C31.4656 7.71275 31.3093 7.66704 31.2194 7.63901C31.1295 7.61098 30.9456 7.55747 30.8107 7.52011C30.6758 7.4828 30.4092 7.40585 30.2181 7.34918C29.8727 7.24672 29.6704 7.18883 29.319 7.09177C29.2179 7.06382 29.0615 7.01822 28.9716 6.99044C28.6764 6.89917 28.4025 6.81845 28.2156 6.76754C28.0286 6.71664 27.7547 6.63591 27.4595 6.54465C27.3696 6.51686 27.2133 6.47127 27.1121 6.44332C26.7897 6.35424 26.5698 6.29165 26.1926 6.18156C25.9903 6.1225 25.7236 6.04535 25.6 6.01006C25.4764 5.97477 25.3017 5.92322 25.2118 5.89547C25.1218 5.86777 24.9655 5.82233 24.8644 5.79451C24.6033 5.72271 24.2867 5.62706 24.1849 5.58926C24.137 5.57149 23.9715 5.52594 23.817 5.48809C23.6626 5.45025 23.3982 5.37431 23.2296 5.31935C23.0611 5.26438 22.7576 5.17474 22.5553 5.12014C22.353 5.0655 22.1323 5.00389 22.0649 4.98316C21.9975 4.96247 21.8458 4.9174 21.7277 4.88301C21.6097 4.84861 21.4166 4.79219 21.2986 4.75759C21.1806 4.72298 21.0197 4.67914 20.941 4.66015C20.8623 4.64117 20.7428 4.60604 20.6754 4.58211C20.6079 4.55813 20.3873 4.49137 20.185 4.43369C19.6519 4.2817 19.4505 4.22341 19.0611 4.10853C18.87 4.05215 18.6217 3.97966 18.5094 3.94749C18.397 3.91529 18.1487 3.84325 17.9576 3.78735C17.1968 3.56482 17.1096 3.53975 16.6294 3.40565C16.5395 3.38054 16.3188 3.31357 16.139 3.25682C15.9592 3.20007 15.6741 3.11801 15.5055 3.07441C15.3369 3.0308 15.153 2.97904 15.0968 2.95937C15.0407 2.9397 14.8843 2.89151 14.7495 2.85224C14.6146 2.81302 14.4583 2.76726 14.4021 2.75063C14.3459 2.73396 14.1804 2.68901 14.0343 2.65068C13.8882 2.61239 13.7043 2.55755 13.6256 2.52879C13.5469 2.50003 13.2986 2.42681 13.0739 2.36605C12.8491 2.30532 12.5916 2.23223 12.5017 2.20367C12.4118 2.17508 12.2555 2.1292 12.1543 2.1017C11.9729 2.05233 11.7969 1.99944 11.4831 1.89989C11.3949 1.8719 11.1893 1.8167 11.0262 1.77723C10.8631 1.73772 10.7101 1.69343 10.6862 1.67878C10.6398 1.65031 10.3912 1.57818 9.92394 1.45759C9.76488 1.41658 9.56258 1.35959 9.47439 1.33103C9.20552 1.24394 8.99595 1.18062 8.80313 1.12817C8.70198 1.10067 8.54566 1.05548 8.45575 1.02778C8.36584 1.00003 8.18193 0.945477 8.04707 0.906536C7.9122 0.867595 7.75588 0.822164 7.69969 0.805655C7.64349 0.789105 7.48717 0.74343 7.3523 0.704084C7.21744 0.664737 7.05192 0.609003 6.98449 0.580203C6.91706 0.551444 6.78832 0.509217 6.69841 0.48638C6.6085 0.463543 6.42337 0.416287 6.28703 0.381402C6.06802 0.325344 4.84904 0.290946 4.69586 0.336539ZM51.5105 20.5764V30.9028H52.757H54.0035V27.0087V23.1146H55.8918C57.93 23.1146 58.5652 23.0619 59.3164 22.8307C59.3725 22.8134 59.5381 22.7666 59.6842 22.7267C59.8303 22.6868 59.9682 22.6422 59.9907 22.6277C60.0132 22.6131 60.1235 22.5679 60.2359 22.5272C60.573 22.4049 61.4639 21.9265 61.5641 21.8139C61.5753 21.8013 61.6673 21.7348 61.7685 21.6662C61.9659 21.5323 62.4257 21.1285 62.5632 20.9683C62.6094 20.9145 62.6944 20.8232 62.7523 20.7655C62.894 20.624 63.3214 20.0429 63.3214 19.9916C63.3214 19.9691 63.3353 19.9505 63.3521 19.9503C63.3689 19.9502 63.4019 19.9091 63.4253 19.8591C63.4487 19.809 63.5075 19.6951 63.5559 19.6059C63.7261 19.292 63.9407 18.7728 64.0086 18.5106C64.0317 18.4214 64.0787 18.2389 64.1131 18.105C64.3756 17.0835 64.36 15.6133 64.0752 14.5354C63.9628 14.1101 63.945 14.0521 63.8753 13.8864C63.306 12.5337 62.4738 11.6501 61.1654 11.0092C60.9573 10.9073 60.7633 10.8239 60.7342 10.8239C60.7051 10.8239 60.6639 10.8094 60.6425 10.7916C60.6212 10.7739 60.4934 10.7259 60.3585 10.6849C60.2236 10.6439 60.0397 10.5872 59.9498 10.5587C59.789 10.5079 59.7028 10.4897 58.969 10.3512C58.6442 10.2899 58.1868 10.28 55.0558 10.2659L51.5105 10.2501V20.5764ZM139.95 20.5768V30.9028L143.495 30.9025C146.854 30.9022 147.064 30.898 147.49 30.8216C148.293 30.6774 148.348 30.6628 149.002 30.416C149.409 30.2622 150.093 29.9118 150.119 29.8434C150.126 29.8237 150.154 29.8076 150.18 29.8076C150.322 29.8076 151.317 28.9325 151.609 28.5515C151.703 28.428 151.79 28.3179 151.801 28.3067C151.996 28.1147 152.415 27.271 152.536 26.8261C152.555 26.7592 152.588 26.6497 152.61 26.5828C152.847 25.8757 152.821 24.0506 152.561 23.2363C152.441 22.8573 152.1 22.1411 152.04 22.1411C152.021 22.1411 152.006 22.1209 152.006 22.0962C152.006 21.7206 150.627 20.6471 149.619 20.2385C149.4 20.1496 148.558 19.9506 148.402 19.9506C148.185 19.9506 148.207 19.8915 148.452 19.8119C148.751 19.715 149.455 19.3462 149.739 19.1387C149.975 18.9656 150.657 18.325 150.657 18.2761C150.657 18.2628 150.712 18.192 150.78 18.1188C150.847 18.0455 150.902 17.9622 150.902 17.9337C150.902 17.9052 150.916 17.8819 150.933 17.8819C150.951 17.8819 150.983 17.8464 151.005 17.8029C151.027 17.7595 151.122 17.58 151.217 17.404C151.367 17.1227 151.434 16.9534 151.597 16.441C151.814 15.7616 151.814 14.3149 151.599 13.643C151.537 13.4527 151.223 12.7193 151.19 12.6898C151.177 12.6786 151.093 12.5611 151.004 12.4285C150.819 12.155 150.349 11.6636 150.105 11.4887C150.015 11.4243 149.923 11.3522 149.901 11.3286C149.836 11.2601 149.541 11.0815 149.441 11.05C149.39 11.0342 149.349 11.0042 149.349 10.9834C149.349 10.9626 149.331 10.9456 149.309 10.9456C149.288 10.9456 149.173 10.9024 149.054 10.8496C148.711 10.6968 148.298 10.5483 148.082 10.4999C147.029 10.2635 147.413 10.2832 143.515 10.2663L139.95 10.2508V20.5768ZM156.951 20.5794V30.9028H158.197H159.444V20.5794V10.256H158.197H156.951V20.5794ZM57.7634 12.5307C58.2243 12.5781 58.9889 12.7355 59.2551 12.8377C59.5195 12.9393 60.1087 13.2289 60.1673 13.2861C60.197 13.3151 60.2356 13.3388 60.2531 13.3388C60.3557 13.3388 61.0067 14.0447 61.1451 14.306C61.4368 14.8568 61.4965 15.0239 61.611 15.6099C61.7079 16.1055 61.7131 16.9807 61.6218 17.4244C61.5061 17.9866 61.2698 18.6738 61.1576 18.7743C61.1452 18.7855 61.0996 18.8585 61.0563 18.9366C61.0131 19.0146 60.967 19.0877 60.9539 19.0988C60.9409 19.11 60.8753 19.1921 60.8082 19.2814C60.3615 19.8755 59.6221 20.3263 58.5603 20.6517C57.9943 20.8252 57.2498 20.8819 55.5258 20.8828L54.0035 20.8836V16.6853V12.487L55.6689 12.4867C56.5848 12.4866 57.5273 12.5064 57.7634 12.5307ZM146.162 12.5459C148.612 12.8493 149.642 14.3822 148.971 16.7259C148.802 17.3156 147.883 18.4415 147.565 18.4487C147.538 18.4493 147.511 18.4635 147.503 18.4802C147.486 18.5184 147.046 18.731 146.879 18.7819C145.953 19.0635 145.626 19.0986 143.924 19.0987L142.442 19.0988V15.7929V12.487L144.067 12.4873C145.232 12.4876 145.825 12.5041 146.162 12.5459ZM22.485 12.6626C22.0266 12.8352 21.7375 13.1202 21.5553 13.5791C21.4341 13.8843 21.4229 37.7236 21.5438 38.0638C21.681 38.4498 21.9505 38.7483 22.341 38.9467L22.5962 39.0763H23.9666C25.2399 39.0763 25.3499 39.0707 25.5196 38.9965C25.7198 38.9091 26.1313 38.626 26.1313 38.5756C26.1313 38.5582 26.1636 38.5086 26.2031 38.4654C26.2954 38.3643 26.3782 38.1906 26.4436 37.9608C26.5223 37.6841 26.5223 14.0168 26.4436 13.7242C26.2965 13.1777 25.9397 12.8056 25.4012 12.6368C25.0334 12.5215 22.8072 12.5412 22.485 12.6626ZM71.9038 15.881C71.6903 15.9135 71.4144 15.9656 71.2908 15.9969C71.1671 16.028 70.9557 16.0803 70.8208 16.113C70.5302 16.1835 70.3296 16.2502 70.181 16.3259C70.1214 16.3562 70.0529 16.3811 70.0289 16.3811C69.5978 16.3811 67.9934 17.5512 67.3869 18.3078C67.2975 18.4194 67.2152 18.5198 67.2039 18.5309C67.1927 18.5421 67.1651 18.5817 67.1426 18.6189C67.1202 18.6561 67.0335 18.786 66.95 18.9074C66.7821 19.1519 66.3866 19.9117 66.3866 19.9898C66.3866 20.0172 66.3615 20.088 66.3309 20.1472C65.7028 21.3628 65.5396 24.3761 66.0066 26.1366C66.1701 26.7532 66.6229 27.8661 66.7574 27.9822C66.7704 27.9934 66.8164 28.0664 66.8596 28.1445C66.9029 28.2225 66.9475 28.2956 66.9587 28.3067C66.97 28.3179 67.0432 28.4183 67.1213 28.5298C67.2748 28.7486 67.4048 28.9065 67.582 29.0894C67.6438 29.1531 67.6944 29.2117 67.6944 29.2194C67.6944 29.241 67.9432 29.483 67.9654 29.483C67.9762 29.483 68.0346 29.5348 68.0951 29.5982C68.1557 29.6615 68.2788 29.7663 68.3687 29.8312C68.4586 29.896 68.5437 29.9649 68.5577 29.9841C68.6209 30.0707 69.4766 30.5474 69.8206 30.6877C70.4439 30.942 70.8384 31.0544 71.5973 31.1941C71.9844 31.2653 73.9823 31.265 74.3763 31.1937C75.4585 30.9976 76.5447 30.5998 77.1758 30.1683C77.8664 29.6961 78.3569 29.2486 78.7715 28.7123C78.8492 28.6119 78.9242 28.5207 78.9382 28.5095C79.0724 28.4027 79.6524 27.3357 79.8186 26.89C80.072 26.2102 80.1707 25.8183 80.3249 24.8791C80.4612 24.049 80.3813 21.7827 80.199 21.3068C80.1771 21.2496 80.159 21.1538 80.1587 21.0939C80.1582 20.9739 79.9635 20.3167 79.7899 19.8492C79.746 19.7312 79.286 18.7982 79.2598 18.7743C79.2476 18.7632 79.1503 18.6263 79.0436 18.4701C78.6471 17.8899 78.0739 17.3191 77.5232 16.9558C77.3658 16.852 77.2279 16.757 77.2167 16.7446C77.1958 16.7217 76.4452 16.3554 76.2971 16.2959C75.9124 16.1412 75.3015 15.9875 74.6215 15.8743C74.1329 15.7929 72.4553 15.7971 71.9038 15.881ZM110.279 15.8805C109.55 16.0189 109.184 16.1387 108.542 16.4486C108.205 16.6113 108.092 16.6724 107.972 16.756C107.296 17.228 106.6 17.8547 106.293 18.2673C106.226 18.3565 106.151 18.4519 106.125 18.4791C106.099 18.5064 106.035 18.5977 105.984 18.6819C105.932 18.7662 105.879 18.8443 105.866 18.8554C105.837 18.8786 105.686 19.1362 105.506 19.4686C105.397 19.6683 105.331 19.8194 105.066 20.478C104.991 20.6628 104.842 21.2158 104.8 21.4635C104.781 21.5704 104.756 21.6902 104.743 21.7295C104.41 22.7707 104.631 25.8324 105.132 27.1304C105.18 27.2531 105.229 27.3888 105.242 27.4319C105.469 28.1824 106.677 29.7542 107.271 30.0715C107.352 30.115 107.418 30.1633 107.418 30.1789C107.418 30.2052 107.567 30.2946 108.036 30.5493C108.27 30.6761 108.809 30.9028 108.877 30.9028C108.905 30.9028 108.988 30.9282 109.062 30.9593C109.202 31.0181 109.565 31.1044 110.054 31.1947C110.487 31.2746 112.54 31.2601 113.099 31.1732C114.326 30.9823 115.216 30.6884 116.036 30.2043C116.178 30.12 116.303 30.0509 116.313 30.0509C116.323 30.0509 116.385 30.011 116.452 29.9622L116.573 29.8734V28.7227V27.572L116.447 27.6452C116.378 27.6856 116.291 27.7467 116.253 27.7811C116.114 27.9084 115.591 28.239 115.418 28.3094C115.357 28.3346 115.306 28.3717 115.306 28.3918C115.306 28.4119 115.288 28.4284 115.266 28.4284C115.244 28.4284 115.088 28.4927 114.919 28.5712C113.411 29.272 111.391 29.4374 110.136 28.9629C109.371 28.6736 109.056 28.476 108.54 27.9642C107.902 27.331 107.586 26.754 107.338 25.7715C107.237 25.3732 107.204 25.1742 107.107 24.3822L107.081 24.1692H112.338H117.595V23.1769C117.595 21.9427 117.506 21.0143 117.328 20.3968C117.3 20.2965 117.254 20.123 117.227 20.0115C117.18 19.815 117.111 19.6147 117.004 19.3625C116.975 19.2955 116.934 19.1952 116.911 19.1394C116.862 19.0191 116.708 18.7068 116.593 18.4977C116.476 18.2827 116.033 17.6791 115.994 17.6791C115.975 17.6791 115.96 17.6603 115.96 17.6373C115.96 17.5722 115.401 17.0472 115.142 16.8688C115.064 16.8147 114.99 16.7603 114.979 16.7481C114.951 16.7179 114.809 16.6301 114.734 16.5967C114.7 16.5818 114.608 16.5307 114.529 16.4834C114.213 16.2927 113.469 16.0284 113.017 15.9463C112.961 15.9361 112.783 15.902 112.621 15.8705C112.223 15.7931 110.705 15.7996 110.279 15.8805ZM126.933 15.918C126.799 15.9371 126.368 16.0475 126.238 16.0961C126.029 16.1742 125.447 16.4824 125.4 16.5398C125.389 16.5535 125.26 16.6604 125.112 16.7775C124.556 17.2199 123.895 18.191 123.683 18.8757C123.655 18.965 123.618 19.0745 123.6 19.1191C123.582 19.1637 123.566 18.5109 123.564 17.6683L123.561 16.1365L122.345 16.1472L121.13 16.158L121.119 23.5304L121.109 30.9028H122.335H123.561L123.562 27.0797C123.563 22.2556 123.593 21.807 123.99 20.7145C124.188 20.1702 124.646 19.3693 124.795 19.3084C124.813 19.3009 124.828 19.2798 124.828 19.2613C124.828 19.2332 125.086 18.9753 125.355 18.7337C125.468 18.6331 125.737 18.4672 125.911 18.392C126.001 18.3531 126.111 18.3016 126.156 18.2775C126.673 18.0006 128.07 18.1073 128.696 18.4714C128.791 18.5265 128.888 18.5715 128.913 18.5715C128.944 18.5715 128.954 18.2024 128.946 17.328L128.936 16.0846L128.711 16.0077C128.49 15.9322 127.266 15.8704 126.933 15.918ZM82.0902 16.1884C82.1006 16.2163 82.1686 16.449 82.2412 16.7056C82.3139 16.9621 82.3973 17.2359 82.4266 17.314C82.4559 17.3921 82.5024 17.5381 82.53 17.6385C82.602 17.9013 82.6956 18.2048 82.7552 18.3687C82.7836 18.4468 82.866 18.7114 82.9384 18.9568C83.0107 19.2023 83.0955 19.4898 83.1267 19.5957C83.1579 19.7017 83.2118 19.8842 83.2464 20.0014C83.2811 20.1185 83.3254 20.2691 83.345 20.336C83.3646 20.4029 83.4002 20.5125 83.4241 20.5794C83.4479 20.6463 83.5159 20.8654 83.575 21.0661C83.6342 21.2669 83.7063 21.5042 83.7353 21.5935C83.7643 21.6827 83.8085 21.8287 83.8335 21.918C83.8585 22.0072 83.9324 22.2536 83.9977 22.4656C84.0631 22.6775 84.1658 23.0152 84.226 23.216C84.3459 23.616 84.4003 23.7925 84.5446 24.2504C84.5972 24.4177 84.6734 24.6641 84.7137 24.798C84.754 24.9318 84.801 25.087 84.8182 25.1428C84.8353 25.1985 84.8791 25.3446 84.9155 25.4673C84.9518 25.59 85.0353 25.8638 85.1009 26.0757C85.1666 26.2877 85.2698 26.6254 85.3301 26.8261C85.3905 27.0269 85.4636 27.2642 85.4926 27.3535C85.5216 27.4427 85.5676 27.5979 85.5948 27.6983C85.6221 27.7987 85.6675 27.9447 85.6958 28.0228C85.7242 28.1008 85.7765 28.2651 85.8121 28.3878C85.939 28.8246 86.0946 29.3435 86.1465 29.5033C86.1755 29.5926 86.2215 29.7477 86.2487 29.8481C86.2759 29.9485 86.3214 30.0945 86.3497 30.1726C86.3921 30.2894 86.4908 30.6103 86.5587 30.8521C86.5697 30.8912 86.8511 30.9027 87.7901 30.9026L89.0072 30.9025L89.0744 30.7302C89.1115 30.6355 89.1909 30.3937 89.251 30.1929C89.3111 29.9921 89.3841 29.764 89.4133 29.6859C89.4424 29.6078 89.4962 29.4435 89.5327 29.3208C89.6204 29.0256 89.7909 28.4799 89.9113 28.1088C89.9648 27.9443 90.0085 27.7851 90.0085 27.7553C90.0085 27.7254 90.0339 27.6411 90.0649 27.5678C90.1227 27.4315 90.1645 27.3022 90.3572 26.6639C90.4178 26.4631 90.4909 26.2349 90.5196 26.1568C90.5483 26.0788 90.5949 25.9327 90.6232 25.8323C90.6514 25.7319 90.7247 25.4947 90.7861 25.305C90.8474 25.1154 90.9201 24.8781 90.9478 24.7777C90.9754 24.6773 91.0221 24.5313 91.0515 24.4532C91.1438 24.2081 91.4388 23.2588 91.4388 23.2072C91.4388 23.1801 91.4651 23.098 91.4972 23.0247C91.5292 22.9514 91.6045 22.7272 91.6644 22.5264C91.7243 22.3256 91.7974 22.0883 91.8269 21.9991C91.8564 21.9099 91.9305 21.6726 91.9918 21.4718C92.053 21.271 92.1538 20.9516 92.2157 20.7619C92.2776 20.5723 92.3484 20.3441 92.3729 20.2549C92.3974 20.1656 92.4453 19.9922 92.4793 19.8695C92.5134 19.7468 92.5674 19.5278 92.5995 19.3828C92.6315 19.2377 92.6593 19.169 92.6613 19.2299C92.6708 19.5217 92.796 20.1193 92.9761 20.7315C93.0072 20.8374 93.0607 21.02 93.0948 21.1371C93.129 21.2543 93.1851 21.4414 93.2195 21.5529C93.2539 21.6645 93.2978 21.8196 93.317 21.8977C93.3497 22.0308 93.3828 22.1452 93.5344 22.6481C93.568 22.7597 93.6345 22.9878 93.6821 23.1552C93.7297 23.3225 93.8059 23.5872 93.8513 23.7433C93.8968 23.8995 93.9706 24.155 94.0152 24.3112C94.125 24.6948 94.2146 25.0006 94.2885 25.2442C94.3224 25.3557 94.3936 25.6021 94.4466 25.7918C94.4997 25.9814 94.5731 26.237 94.6098 26.3597C94.7431 26.806 94.7859 26.9524 94.8531 27.1912C94.9453 27.5195 94.9795 27.6388 95.0567 27.9011C95.0928 28.0238 95.149 28.2154 95.1818 28.327C95.2145 28.4385 95.2691 28.6211 95.3031 28.7326C95.3371 28.8442 95.3992 29.0632 95.4412 29.2194C95.622 29.8921 95.6454 29.973 95.6708 30.0137C95.6855 30.0373 95.7307 30.1877 95.7713 30.3479C95.8119 30.508 95.867 30.6984 95.8937 30.7709L95.9424 30.9028H97.2003H98.4583L98.4993 30.7912C98.5218 30.7298 98.5728 30.5701 98.6127 30.4363C98.6525 30.3024 98.708 30.1199 98.7359 30.0307C98.7638 29.9414 98.8089 29.7863 98.8362 29.6859C98.8634 29.5855 98.9091 29.4394 98.9378 29.3614C98.9848 29.2333 99.0331 29.0674 99.1684 28.5704C99.1927 28.4811 99.2361 28.3442 99.2647 28.2661C99.2934 28.1881 99.3476 28.0147 99.3854 27.8808C99.4742 27.5654 99.6455 26.9923 99.7127 26.7856C99.7417 26.6963 99.7885 26.5412 99.8168 26.4408C99.8452 26.3404 99.8912 26.1852 99.9192 26.096C100.013 25.7959 100.093 25.5293 100.143 25.3456C100.171 25.2452 100.217 25.0992 100.246 25.0211C100.274 24.943 100.329 24.7696 100.367 24.6357C100.463 24.2976 100.632 23.7346 100.695 23.5405C100.724 23.4513 100.797 23.214 100.856 23.0132C100.915 22.8124 100.989 22.566 101.019 22.4656C101.05 22.3652 101.121 22.1279 101.179 21.9383C101.236 21.7486 101.341 21.4018 101.413 21.1675C101.485 20.9333 101.562 20.6777 101.585 20.5997C101.607 20.5216 101.649 20.3847 101.677 20.2954C101.726 20.1415 101.867 19.6691 102.009 19.1799C102.044 19.0572 102.098 18.893 102.127 18.8149C102.156 18.7368 102.203 18.5816 102.23 18.4701C102.273 18.2969 102.393 17.9061 102.555 17.4126C102.577 17.344 102.596 17.258 102.596 17.2213C102.596 17.1845 102.622 17.0946 102.654 17.0213C102.715 16.8826 102.923 16.2212 102.923 16.1681C102.923 16.1514 102.383 16.1377 101.724 16.1377H100.525L100.477 16.241C100.451 16.2978 100.43 16.373 100.43 16.408C100.43 16.443 100.403 16.5562 100.371 16.6596C100.338 16.763 100.291 16.9297 100.266 17.0301C100.241 17.1305 100.2 17.2765 100.175 17.3546C100.15 17.4327 100.116 17.5604 100.098 17.6385C100.081 17.7166 100.037 17.8809 100.001 18.0036C99.9647 18.1263 99.892 18.391 99.8391 18.5918C99.7862 18.7926 99.7024 19.1029 99.6528 19.2814C99.6033 19.4598 99.5299 19.7336 99.4899 19.8898C99.4498 20.046 99.3765 20.3198 99.3269 20.4983C99.2134 20.9065 99.0486 21.5089 98.9995 21.6949C98.9504 21.8809 98.7855 22.4832 98.672 22.8915C98.6225 23.07 98.549 23.3471 98.5088 23.5072C98.4686 23.6674 98.4243 23.8168 98.4104 23.8392C98.3964 23.8616 98.3679 23.9587 98.3469 24.055C98.3259 24.1513 98.2795 24.3305 98.2437 24.4532C98.2079 24.5759 98.1619 24.7493 98.1415 24.8385C98.1211 24.9278 98.0751 25.1012 98.0392 25.2239C97.9849 25.4099 97.8429 25.932 97.6917 26.5016C97.6739 26.5686 97.6007 26.8424 97.5289 27.1101C97.3607 27.7372 97.2434 28.2913 97.2427 28.4612C97.2417 28.6956 97.1678 28.5602 97.1415 28.2758C97.1063 27.8965 97.0135 27.4061 96.9131 27.0695C96.8665 26.9134 96.8103 26.7126 96.7882 26.6233C96.7183 26.3411 96.6759 26.183 96.6143 25.9743C96.5173 25.6455 96.4194 25.295 96.3821 25.1428C96.3629 25.0647 96.3177 24.9004 96.2817 24.7777C96.2457 24.655 96.1715 24.3903 96.117 24.1895C96.0624 23.9887 95.9889 23.7241 95.9537 23.6014C95.8789 23.3405 95.6608 22.5492 95.607 22.3439C95.5588 22.1596 95.3945 21.559 95.2797 21.1473C95.2299 20.9688 95.1719 20.7589 95.1507 20.6808C95.1089 20.5261 95.0898 20.4567 94.9545 19.9709C94.9048 19.7925 94.8191 19.4821 94.7641 19.2814C94.7091 19.0806 94.6381 18.825 94.6063 18.7135C94.4957 18.3251 94.3343 17.739 94.2992 17.598C94.2798 17.5199 94.2248 17.3282 94.177 17.1721C94.0955 16.9054 94.0578 16.7649 93.976 16.4216C93.9019 16.1112 94.007 16.1352 92.7727 16.1472L91.6636 16.158L91.6069 16.3405C91.5756 16.4409 91.527 16.5869 91.4988 16.665C91.4707 16.7431 91.4249 16.8891 91.3971 16.9895C91.3693 17.0899 91.2943 17.3363 91.2304 17.5371C91.0252 18.1821 90.7999 18.9064 90.6878 19.2814C90.6277 19.4821 90.559 19.7012 90.5352 19.7681C90.5113 19.835 90.4761 19.9446 90.4569 20.0115C90.3224 20.4826 90.2382 20.7611 90.1935 20.8836C90.134 21.0466 90.0406 21.3489 89.968 21.6137C89.9404 21.7141 89.8948 21.8602 89.8664 21.9383C89.8381 22.0163 89.7828 22.1897 89.7434 22.3236C89.7041 22.4575 89.6569 22.6126 89.6385 22.6684C89.6202 22.7242 89.5299 23.0162 89.4378 23.3174C89.3457 23.6186 89.2181 24.0293 89.1543 24.2301C89.0904 24.4309 89.0154 24.6773 88.9876 24.7777C88.9599 24.8781 88.9139 25.0241 88.8856 25.1022C88.837 25.2363 88.7388 25.5566 88.6493 25.8729C88.6272 25.951 88.5837 26.0748 88.5527 26.1481C88.5217 26.2213 88.4963 26.3165 88.4963 26.3597C88.4963 26.4028 88.4705 26.498 88.4389 26.5712C88.4074 26.6445 88.359 26.7866 88.3315 26.887C88.3039 26.9874 88.2572 27.1425 88.2277 27.2318C88.156 27.4484 88.057 27.8928 87.9974 28.2661L87.9488 28.5704L87.8947 28.185C87.8389 27.7874 87.7208 27.2217 87.6196 26.8667C87.5878 26.7552 87.5313 26.5544 87.4942 26.4205C87.457 26.2867 87.3997 26.0859 87.3668 25.9743C87.3339 25.8628 87.2913 25.7076 87.2721 25.6295C87.2348 25.4773 87.1369 25.1268 87.0399 24.798C86.9836 24.6073 86.958 24.5112 86.8641 24.1388C86.843 24.0552 86.7867 23.8589 86.739 23.7028C86.6546 23.4268 86.6227 23.3102 86.5391 22.9726C86.5169 22.8834 86.4598 22.6826 86.412 22.5264C86.3643 22.3703 86.3071 22.1695 86.285 22.0802C86.2014 21.7427 86.1694 21.626 86.0851 21.3501C86.0374 21.1939 85.9823 21.0023 85.9626 20.9242C85.9221 20.7623 85.8866 20.6314 85.7591 20.1737C85.6799 19.8896 85.5373 19.3743 85.4334 18.9974C85.415 18.9305 85.3592 18.7297 85.3094 18.5512C85.2596 18.3727 85.1769 18.0715 85.1256 17.8819C85.0743 17.6923 85.0007 17.4276 84.962 17.2937C84.9234 17.1599 84.8575 16.9226 84.8156 16.7664C84.7738 16.6103 84.7166 16.4049 84.6887 16.3101L84.6378 16.1377H83.3545C82.345 16.1377 82.0753 16.1485 82.0902 16.1884ZM15.5125 16.4471C14.9924 16.5873 14.5984 16.9794 14.4581 17.4966C14.3712 17.8168 14.3768 35.3806 14.4639 35.6656C14.6218 36.182 14.9675 36.5294 15.4851 36.6915C15.7319 36.7688 17.7889 36.7631 18.0502 36.6843C18.4718 36.5574 18.8357 36.2241 19.0075 35.8077C19.1106 35.5579 19.1243 17.5981 19.0216 17.3546C18.8269 16.8929 18.4502 16.5608 17.9799 16.4366C17.6823 16.3579 15.814 16.3659 15.5125 16.4471ZM74.2742 17.9447C75.3795 18.1975 76.2836 18.7606 76.811 19.5247C76.888 19.6363 76.9612 19.7367 76.9736 19.7478C76.986 19.759 77.0281 19.832 77.0673 19.9101C77.1064 19.9882 77.1708 20.1068 77.2104 20.1737C77.3414 20.3949 77.6326 21.2041 77.685 21.4921C77.8785 22.5563 77.8785 22.5559 77.8792 23.5811C77.88 24.5845 77.8673 24.7254 77.704 25.5281C77.6455 25.8158 77.5426 26.1588 77.477 26.2848C77.4462 26.344 77.421 26.4132 77.421 26.4386C77.421 26.5497 77.0666 27.2109 76.8317 27.538C75.2045 29.8038 71.1017 29.804 69.4108 27.5384C69.3546 27.4631 69.2857 27.3783 69.2576 27.3499C69.2295 27.3216 69.2065 27.2863 69.2065 27.2714C69.2065 27.2565 69.1651 27.1871 69.1145 27.1172C68.9627 26.9073 68.935 26.8569 68.7756 26.5016C68.6004 26.1109 68.576 26.038 68.4371 25.4876C68.1564 24.376 68.1475 22.8171 68.4158 21.7557C68.5879 21.075 68.6595 20.8705 68.8829 20.4216C69.4299 19.3229 70.1324 18.6557 71.2499 18.1737C71.3061 18.1495 71.4532 18.1025 71.5768 18.0693C71.7005 18.0361 71.8844 17.9864 71.9855 17.9589C72.4434 17.8343 73.7559 17.8262 74.2742 17.9447ZM112.384 17.9451C113.221 18.1945 113.654 18.4541 114.092 18.9696C114.306 19.2212 114.652 19.7606 114.652 19.8425C114.652 19.8708 114.667 19.9112 114.686 19.9324C114.833 20.0987 115.102 21.3362 115.102 21.8493V22.1005H111.124H107.146L107.184 21.8876C107.346 20.9605 107.85 19.8296 108.312 19.354C108.36 19.3048 108.399 19.2561 108.399 19.2459C108.399 19.231 108.719 18.9171 108.944 18.7107C109.71 18.01 111.365 17.6415 112.384 17.9451ZM8.6173 18.4442C8.19497 18.5874 7.92029 18.8306 7.71771 19.2408L7.59751 19.4842L7.58685 26.3799C7.57684 32.8361 7.58068 33.2885 7.64709 33.4785C7.72511 33.7017 7.8784 33.9719 7.98106 34.0671C8.13567 34.2104 8.38415 34.3808 8.51705 34.4347C8.71265 34.5139 11.1823 34.5204 11.2614 34.4419C11.2894 34.4141 11.3389 34.3912 11.3712 34.3912C11.5351 34.3912 11.9487 33.9618 12.133 33.6002C12.215 33.4392 12.2156 33.3839 12.2156 26.4814C12.2156 18.4071 12.2708 19.3005 11.74 18.7738C11.3674 18.4039 11.2019 18.368 9.88499 18.3715C8.99276 18.3739 8.79066 18.3855 8.6173 18.4442ZM1.54901 20.8232C1.41414 20.8782 1.28336 20.9508 1.25843 20.9845C1.23346 21.0182 1.20101 21.0459 1.18634 21.0459C1.12291 21.0459 0.905002 21.33 0.782643 21.5723L0.649902 21.8351V26.4602V31.0853L0.739812 31.2691C1.12463 32.0557 1.46833 32.1997 2.96284 32.2003C4.47767 32.201 4.86976 32.0289 5.18759 31.2239L5.28846 30.9685V26.462C5.28846 21.4851 5.30537 21.8235 5.03348 21.3641C4.92448 21.1798 4.6476 20.9242 4.55716 20.9242C4.53231 20.9242 4.51196 20.9095 4.51196 20.8916C4.51196 20.6887 2.02013 20.6312 1.54901 20.8232ZM146.672 21.4073C147.238 21.5142 147.538 21.584 147.665 21.6378C147.739 21.6692 147.828 21.6949 147.865 21.6949C147.901 21.6949 148.088 21.7707 148.282 21.8635C149.047 22.2301 149.47 22.6176 149.843 23.2971C150.316 24.156 150.258 26.1245 149.739 26.8059C149.714 26.8393 149.667 26.9176 149.636 26.9798C149.318 27.6107 148.371 28.2246 147.265 28.517L146.795 28.6412L144.619 28.6601L142.442 28.679V24.9994V21.3198L144.435 21.3404C145.669 21.3531 146.52 21.3786 146.672 21.4073Z" fill="#93A2B7"/>
</svg>
