<svg width="189" height="40" viewBox="0 0 189 40" fill="none" xmlns="http://www.w3.org/2000/svg">
<path fill-rule="evenodd" clip-rule="evenodd" d="M19.4919 2.10941V3.90339H17.8815H16.2711V4.48838V5.07338H17.8815H19.4919V6.86736V8.66134H20.1204H20.7488V6.86736V5.07338H22.3985H24.0482V4.48838V3.90339H22.3985H20.7488V2.10941V0.31543H20.1204H19.4919V2.10941ZM8.9654 6.67236V9.28533H6.53016H4.09491V10.1043V10.9233H6.53016H8.9654V13.5753V16.2273H9.86879H10.7722V13.5753V10.9233H13.2467H15.7212V10.1043V9.28533H13.2467H10.7722V6.67236V4.05939H9.86879H8.9654V6.67236ZM29.39 6.67236V9.28533H26.9548H24.5195V10.1433V11.0013H26.9548H29.39V13.6143V16.2273H30.3327H31.2754V13.6143V11.0013H33.7106H36.1458V10.1433V9.28533H33.7106H31.2754V6.67236V4.05939H30.3327H29.39V6.67236ZM118.237 19.1912V30.3451H119.533H120.829V19.1912V8.03734H119.533H118.237V19.1912ZM97.5246 16.0841C97.5533 19.18 97.5768 23.0004 97.5768 24.5739V27.435L98.2641 27.6356C103.429 29.1421 107.444 27.7224 108.469 24.0272C108.695 23.2129 108.674 20.9223 108.433 20.0927C107.454 16.7282 104.05 15.1972 100.424 16.4912L100.091 16.6103V13.5328V10.4553H98.7815H97.4724L97.5246 16.0841ZM55.942 14.7453V18.2552H52.5641H49.1862V19.4642V20.6732H52.5641H55.942V24.4952V28.3171H57.1989H58.4558V24.4952V20.6732H61.8337H65.2116V19.4642V18.2552H61.8337H58.4558V14.7453V11.2353H57.1989H55.942V14.7453ZM19.0206 15.5643V18.4892H16.3104H13.6002V19.5812V20.6732H16.3104H19.0206V23.5982V26.5231H20.1204H21.2202V23.5982V20.6732H23.9303H26.6405V19.5812V18.4892H23.9303H21.2202V15.5643V12.6393H20.1204H19.0206V15.5643ZM34.9675 17.0462V18.8792H33.3178H31.6681V19.6202V20.3612H33.3178H34.9675V22.1942V24.0272H35.7923H36.6172V22.1942V20.3612H38.2668H39.9165V19.6202V18.8792H38.2668H36.6172V17.0462V15.2133H35.7923H34.9675V17.0462ZM3.54502 17.2022V18.9572H1.93462H0.324219V19.5812V20.2052H1.93462H3.54502V21.9602V23.7152H4.17347H4.80192V21.9683V20.2214L6.4516 20.1643L8.10128 20.1073V19.5323V18.9572H6.4516H4.80192V17.2022V15.4473H4.17347H3.54502V17.2022ZM82.8082 16.3699V16.7466L82.3565 16.5287C80.5687 15.6663 77.8352 15.9997 76.2705 17.2711C73.5576 19.4754 73.6112 24.8757 76.3664 26.9217C78.2526 28.3223 81.6732 28.6215 84.754 27.6551L85.4006 27.4523L85.4013 22.1323C85.4016 19.2063 85.4242 16.6279 85.4515 16.4027L85.501 15.9933H84.1546H82.8082V16.3699ZM160.5 16.3699V16.7466L160.049 16.5282C158.533 15.7955 156.082 15.9314 154.57 16.8319C151.118 18.8879 151.062 25.1898 154.477 27.2138C156.423 28.3673 159.719 28.5455 162.461 27.6455L163.093 27.4385V21.7159V15.9933H161.796H160.5V16.3699ZM135.794 16.1218C134.404 16.3434 133.236 16.9852 132.353 18.0116C130.476 20.1955 130.51 24.255 132.423 26.3543C134.216 28.3205 137.88 28.8901 141.015 27.6897L141.647 27.4478V26.199C141.647 25.5121 141.62 24.9636 141.588 24.9801C139.708 25.9353 137.011 26.1893 135.552 25.5486C134.599 25.1299 133.713 23.849 133.713 22.8892V22.7012H138.005H142.298L142.254 21.6677C142.096 17.895 139.367 15.5521 135.794 16.1218ZM186.699 16.3501C185.274 17.088 185.807 19.2645 187.414 19.2687C188.972 19.2729 189.431 17.0348 188.02 16.3148C187.768 16.1865 186.974 16.2078 186.699 16.3501ZM172.852 20.6147C172.881 25.5134 172.866 25.3962 173.577 26.3546C175.391 28.8013 180.948 28.7363 182.611 26.2488C183.256 25.2848 183.236 25.4588 183.264 20.6147L183.289 16.3053H181.993H180.697L180.671 20.3417C180.642 24.8722 180.653 24.784 180.058 25.4549C179.159 26.4691 176.956 26.4691 176.057 25.4549C175.461 24.7818 175.471 24.8731 175.444 20.3417L175.419 16.3053H174.123H172.826L172.852 20.6147ZM187.972 16.6925C188.662 17.1102 188.719 18.133 188.082 18.6653C187.361 19.2677 186.262 18.7295 186.247 17.7666C186.233 16.827 187.2 16.225 187.972 16.6925ZM186.817 17.7482C186.817 18.5932 186.826 18.6452 186.974 18.6452C187.108 18.6452 187.131 18.5932 187.131 18.2891C187.131 17.7696 187.521 17.789 187.624 18.3137C187.68 18.5974 187.718 18.6452 187.885 18.6452C188.092 18.6452 188.098 18.298 187.899 17.9154C187.848 17.8188 187.852 17.7421 187.909 17.6853C188.264 17.3334 187.872 16.8512 187.231 16.8512H186.817V17.7482ZM187.609 17.2887C187.698 17.3953 187.692 17.4305 187.564 17.5227C187.305 17.711 187.131 17.6606 187.131 17.3972C187.131 17.1275 187.42 17.0619 187.609 17.2887ZM81.6691 18.6387C81.9139 18.7241 82.2703 18.8848 82.4611 18.9958L82.8082 19.1978V22.3817V25.5656L82.3565 25.6611C79.2489 26.3182 77.2427 25.1493 77.026 22.5556C76.784 19.6591 79.0692 17.7313 81.6691 18.6387ZM103.383 18.5314C105.026 18.916 105.939 20.2363 105.925 22.2064C105.903 25.0856 103.678 26.4554 100.502 25.5448L100.089 25.4263L100.109 22.2118L100.13 18.9974L100.64 18.8145C101.763 18.4125 102.534 18.3328 103.383 18.5314ZM137.528 18.496C138.639 18.698 139.447 19.5719 139.447 20.5704V20.7512H136.658C135.125 20.7512 133.87 20.7298 133.87 20.7036C133.87 20.5135 134.436 19.6704 134.783 19.3451C135.57 18.6059 136.519 18.3125 137.528 18.496ZM159.355 18.6423C159.611 18.7301 159.973 18.891 160.16 18.9999L160.5 19.1978V22.3817V25.5656L160.049 25.6611C157.245 26.2539 155.256 25.3134 154.8 23.1794C154.128 20.0309 156.504 17.6639 159.355 18.6423ZM8.9654 25.4701V28.0831H6.53016H4.09491V28.9411V29.7991H6.53016H8.9654V32.4121V35.025H9.90807H10.8507V32.4121V29.7991H13.286H15.7212V28.9411V28.0831H13.286H10.8507V25.4701V22.8572H9.90807H8.9654V25.4701ZM29.39 25.4701V28.0831H26.9548H24.5195V28.9411V29.7991H26.9548H29.39V32.4121V35.025H30.3327H31.2754V32.4121V29.7991H33.7106H36.1458V28.9411V28.0831H33.7106H31.2754V25.4701V22.8572H30.3327H29.39V25.4701ZM19.3348 32.1001V33.9331H17.6851H16.0355V34.674V35.415H17.6851H19.3348V37.248V39.081H20.1597H20.9845V37.248V35.415H22.6342H24.2839V34.674V33.9331H22.6342H20.9845V32.1001V30.2671H20.1597H19.3348V32.1001Z" fill="#93A2B7"/>
</svg>
