<svg width="177" height="43" viewBox="0 0 177 43" fill="none" xmlns="http://www.w3.org/2000/svg">
<path id="BLOKZ" d="M2.814 33.4834H18.438C24.15 33.4834 28.224 30.2914 28.224 25.6714C28.224 22.5214 26.25 19.7914 22.932 18.3214C25.452 17.0614 26.922 14.7514 26.922 11.8954C26.922 7.6954 23.226 4.6294 17.892 4.6294H2.814V33.4834ZM9.954 16.0534V10.7194H16.128C18.102 10.7194 19.53 11.8114 19.53 13.3654C19.53 14.9194 18.102 16.0534 16.128 16.0534H9.954ZM9.954 27.3934V21.5974H17.22C19.32 21.5974 20.832 22.8154 20.832 24.4954C20.832 26.1754 19.32 27.3934 17.22 27.3934H9.954ZM46.9173 27.0574V4.6294H39.7773V33.4834H60.8193V27.0574H46.9173ZM86.5597 33.9874C95.0017 33.9874 102.1 27.1414 102.1 19.0354C102.1 10.9294 95.0017 4.1254 86.5597 4.1254C78.1597 4.1254 71.0617 10.9294 71.0617 19.0354C71.0617 27.1414 78.1597 33.9874 86.5597 33.9874ZM86.5597 27.4774C82.1497 27.4774 78.4117 23.6134 78.4117 19.0354C78.4117 14.4994 82.1497 10.6354 86.5597 10.6354C90.9697 10.6354 94.7077 14.4994 94.7077 19.0354C94.7077 23.6134 90.9697 27.4774 86.5597 27.4774ZM113.964 33.4834H121.146V25.6294L124.464 22.0594L132.57 33.4834H141.222L129.42 16.8934L140.382 4.6294H131.856L121.146 16.9354V4.6294H113.964V33.4834ZM150.5 33.4834H174.944V27.0574H160.37L174.734 10.0054V4.6294H150.794V11.0554H164.906L150.5 28.1074V33.4834Z" fill="#5578F0"/>
</svg>
