<svg width="120" height="100" viewBox="0 0 120 100" fill="none" xmlns="http://www.w3.org/2000/svg">
<g id="logo">
<g id="upperObject">
<path id="upper1" fill-rule="evenodd" clip-rule="evenodd" d="M46.1773 49.1086H66.9697H87.7622C94.0784 37.3383 85.679 23 72.4679 23H41.2253C40.5486 23 40 23.5565 40 24.2429V42.8425V49.1086H46.1773ZM46.1773 29.2661V42.8425H83.5102C84.8274 36.1 79.7943 29.2661 72.4679 29.2661H46.1773Z" fill="#5578F0"/>
</g>
<g id="lowerObject">
<path id="lower1" fill-rule="evenodd" clip-rule="evenodd" d="M46.1772 59.2661H86.35C89.2252 66.6474 83.8897 74.9312 75.7968 74.9312H46.1772V59.2661ZM46.1772 53H90.1504L91.2663 55.1391C97.435 66.9631 88.9848 81.1973 75.7968 81.1973H42.0591C40.9219 81.1973 40 80.2622 40 79.1086V59.2661V53H46.1772Z" fill="#5578F0"/>
</g>
</g>
</svg>
