<svg width="120" height="100" viewBox="0 0 120 100" fill="none" xmlns="http://www.w3.org/2000/svg">
<g id="logo">
<g id="upperObject">
<path id="upper1" fill-rule="evenodd" clip-rule="evenodd" d="M39.1773 47.1086H59.9697H80.7622C87.0784 35.3383 78.679 21 65.4679 21H34.2253C33.5486 21 33 21.5565 33 22.2429V40.8425V47.1086H39.1773ZM39.1773 27.2661V40.8425H76.5102C77.8274 34.1 72.7943 27.2661 65.4679 27.2661H39.1773Z" fill="#5578F0"/>
</g>
<g id="lowerObject">
<path id="lower1" fill-rule="evenodd" clip-rule="evenodd" d="M39.1772 57.2661H79.35C82.2252 64.6474 76.8897 72.9312 68.7968 72.9312H39.1772V57.2661ZM39.1772 51H83.1504L84.2663 53.1391C90.435 64.9631 81.9848 79.1973 68.7968 79.1973H35.0591C33.9219 79.1973 33 78.2622 33 77.1086V57.2661V51H39.1772Z" fill="#5578F0"/>
</g>
</g>
</svg>
