<svg width="486" height="38" viewBox="0 0 486 38" fill="none" xmlns="http://www.w3.org/2000/svg">
<g id="Tagline">
<path id="Your Ultimate THEME BUILDER" d="M6.336 27H8.624V21.082L14.63 11.886H12.056L7.48 18.97L2.97 11.886H0.286L6.336 21.082V27ZM26.4816 27.264C30.7276 27.264 34.2916 23.678 34.2916 19.432C34.2916 15.186 30.7276 11.622 26.4816 11.622C22.2356 11.622 18.6276 15.186 18.6276 19.432C18.6276 23.678 22.2356 27.264 26.4816 27.264ZM26.4816 25.218C23.4676 25.218 20.9156 22.578 20.9156 19.432C20.9156 16.308 23.4676 13.668 26.4816 13.668C29.4956 13.668 32.0256 16.308 32.0256 19.432C32.0256 22.578 29.4956 25.218 26.4816 25.218ZM46.2507 27.264C50.0347 27.264 52.7407 24.514 52.7407 20.642V11.886H50.4967V20.598C50.4967 23.304 48.7367 25.24 46.2507 25.24C43.7427 25.24 41.9827 23.304 41.9827 20.598V11.886H39.7607V20.642C39.7607 24.514 42.4447 27.264 46.2507 27.264ZM70.7372 16.814C70.7372 13.932 68.3172 11.886 65.1272 11.886H58.7692V27H60.9912V21.742H64.4672L68.1632 27H70.7152L66.8652 21.522C69.1532 20.928 70.7372 19.146 70.7372 16.814ZM60.9912 13.954H64.8192C66.9972 13.954 68.4712 15.032 68.4712 16.814C68.4712 18.596 66.9972 19.674 64.8192 19.674H60.9912V13.954ZM91.4461 27.264C95.2301 27.264 97.9361 24.514 97.9361 20.642V11.886H95.6921V20.598C95.6921 23.304 93.9321 25.24 91.4461 25.24C88.9381 25.24 87.1781 23.304 87.1781 20.598V11.886H84.9561V20.642C84.9561 24.514 87.6401 27.264 91.4461 27.264ZM106.011 24.932V11.886H103.767V27H114.019V24.932H106.011ZM122.645 27H124.867V13.954H129.839V11.886H117.695V13.954H122.645V27ZM135.026 27H137.248V11.886H135.026V27ZM143.473 27H145.695V16.242L150.997 26.12L156.299 16.242V27H158.521V11.886H156.299L150.997 21.764L145.695 11.886H143.473V27ZM176.636 27H179.1L172.61 11.886H170.146L163.656 27H166.12L167.44 23.92H175.316L176.636 27ZM168.298 21.918L171.378 14.746L174.458 21.918H168.298ZM186.765 27H188.987V13.954H193.959V11.886H181.815V13.954H186.765V27ZM210.235 13.954V11.886H199.125V27H210.235V24.932H201.369V20.334H209.377V18.266H201.369V13.954H210.235ZM282.025 27H284.247V13.954H289.219V11.886H277.075V13.954H282.025V27ZM304.857 11.886V18.266H296.607V11.886H294.385V27H296.607V20.334H304.857V27H307.079V11.886H304.857ZM324.119 13.954V11.886H313.009V27H324.119V24.932H315.253V20.334H323.261V18.266H315.253V13.954H324.119ZM329.814 27H332.036V16.242L337.338 26.12L342.64 16.242V27H344.862V11.886H342.64L337.338 21.764L332.036 11.886H329.814V27ZM362.184 13.954V11.886H351.074V27H362.184V24.932H353.318V20.334H361.326V18.266H353.318V13.954H362.184ZM376.814 27H384.272C386.978 27 388.914 25.306 388.914 22.886C388.914 21.214 387.902 19.85 386.142 18.992C387.506 18.222 388.298 17.232 388.298 15.648C388.298 13.448 386.516 11.886 383.986 11.886H376.814V27ZM379.036 18.178V13.844H383.436C384.954 13.844 386.032 14.768 386.032 16.022C386.032 17.276 384.954 18.178 383.436 18.178H379.036ZM379.036 25.042V20.07H383.766C385.46 20.07 386.648 21.104 386.648 22.556C386.648 24.008 385.46 25.042 383.766 25.042H379.036ZM400.936 27.264C404.72 27.264 407.426 24.514 407.426 20.642V11.886H405.182V20.598C405.182 23.304 403.422 25.24 400.936 25.24C398.428 25.24 396.668 23.304 396.668 20.598V11.886H394.446V20.642C394.446 24.514 397.13 27.264 400.936 27.264ZM413.477 27H415.699V11.886H413.477V27ZM423.705 24.932V11.886H421.461V27H431.713V24.932H423.705ZM436.96 27H442.174C447.058 27 450.534 23.854 450.534 19.432C450.534 15.01 447.058 11.886 442.174 11.886H436.96V27ZM439.182 24.976V13.91H442.306C445.804 13.91 448.246 16.198 448.246 19.432C448.246 22.688 445.804 24.976 442.306 24.976H439.182ZM467.204 13.954V11.886H456.094V27H467.204V24.932H458.338V20.334H466.346V18.266H458.338V13.954H467.204ZM484.602 16.814C484.602 13.932 482.182 11.886 478.992 11.886H472.634V27H474.856V21.742H478.332L482.028 27H484.58L480.73 21.522C483.018 20.928 484.602 19.146 484.602 16.814ZM474.856 13.954H478.684C480.862 13.954 482.336 15.032 482.336 16.814C482.336 18.596 480.862 19.674 478.684 19.674H474.856V13.954Z" fill="#6C7092"/>
<g id="Group 3">
<rect id="Rectangle 10" x="224" width="40" height="38" rx="6" fill="#5E628D"/>
<path id="BI" d="M234.628 27H242.57C245.452 27 247.52 25.328 247.52 22.908C247.52 21.236 246.508 19.828 244.748 19.036C246.09 18.332 246.86 17.21 246.86 15.67C246.86 13.47 244.99 11.886 242.284 11.886H234.628V27ZM237.862 17.98V14.658H241.47C242.68 14.658 243.538 15.362 243.538 16.308C243.538 17.276 242.68 17.98 241.47 17.98H237.862ZM237.862 24.228V20.532H241.976C243.274 20.532 244.198 21.302 244.198 22.38C244.198 23.458 243.274 24.228 241.976 24.228H237.862ZM249.923 27H253.179V11.886H249.923V27Z" fill="#262730"/>
</g>
</g>
</svg>
