<svg width="54" height="59" viewBox="0 0 54 59" fill="none" xmlns="http://www.w3.org/2000/svg">
<path fill-rule="evenodd" clip-rule="evenodd" d="M6.17725 26.1086H47.7622C54.0784 14.3383 45.679 0 32.4679 0H1.22527C0.548571 0 0 0.556459 0 1.24289V19.8425V26.1086H6.17725ZM6.17725 6.26607V19.8425H43.5102C44.8274 13.1 39.7943 6.26607 32.4679 6.26607H6.17725ZM6.17725 36.5521H46.35C49.2252 43.9334 43.8897 52.2172 35.7968 52.2172H6.17725V36.5521ZM6.17725 30.286H50.1504L51.2663 32.4251C57.435 44.2491 48.9848 58.4833 35.7968 58.4833H2.05908C0.921883 58.4833 0 57.5482 0 56.3946V36.5521V30.286H6.17725Z" fill="#5578F0"/>
</svg>
